HIERARCHY
ROOT hip
{
  OFFSET 0 0 0
  CHANNELS 6 Xposition Yposition Zposition Zrotation Yrotation Xrotation
  JOINT abdomen
  {
    OFFSET 0 20.6881 -0.73152
    CHANNELS 3 Zrotation Xrotation Yrotation
    JOINT chest
    {
      OFFSET 0 11.7043 -0.48768
      CHANNELS 3 Zrotation Xrotation Yrotation
      JOINT neck
      {
        OFFSET 0 22.1894 -2.19456
        CHANNELS 3 Zrotation Xrotation Yrotation
        JOINT head
        {
          OFFSET -0.24384 7.07133 1.2192
          CHANNELS 3 Zrotation Xrotation Yrotation
          JOINT leftEye
          {
            OFFSET 4.14528 8.04674 8.04672
            CHANNELS 3 Zrotation Xrotation Yrotation
            End Site
            {
              OFFSET 1 0 0
            }
          }
          JOINT rightEye
          {
            OFFSET -3.6576 8.04674 8.04672
            CHANNELS 3 Zrotation Xrotation Yrotation
            End Site
            {
              OFFSET 1 0 0
            }
          }
        }
      }
      JOINT rCollar
      {
        OFFSET -2.68224 19.2634 -4.8768
        CHANNELS 3 Zrotation Xrotation Yrotation
        JOINT rShldr
        {
          OFFSET -8.77824 -1.95073 1.46304
          CHANNELS 3 Zrotation Xrotation Yrotation
          JOINT rForeArm
          {
            OFFSET -28.1742 -1.7115 0.48768
            CHANNELS 3 Zrotation Xrotation Yrotation
            JOINT rHand
            {
              OFFSET -22.5879 0.773209 7.07136
              CHANNELS 3 Zrotation Xrotation Yrotation
              JOINT rThumb1
              {
                OFFSET -1.2192 -0.487915 3.41376
                CHANNELS 3 Zrotation Xrotation Yrotation
                JOINT rThumb2
                {
                  OFFSET -3.37035 -0.52449 3.41376
                  CHANNELS 3 Zrotation Xrotation Yrotation
                  End Site
                  {
                    OFFSET -1.78271 -1.18214 1.43049
                  }
                }
              }
              JOINT rIndex1
              {
                OFFSET -7.75947 0.938293 5.60832
                CHANNELS 3 Zrotation Xrotation Yrotation
                JOINT rIndex2
                {
                  OFFSET -2.54057 -0.884171 1.56538
                  CHANNELS 3 Zrotation Xrotation Yrotation
                  End Site
                  {
                    OFFSET -1.62519 -0.234802 1.16502
                  }
                }
              }
              JOINT rMid1
              {
                OFFSET -8.24714 1.18213 3.41376
                CHANNELS 3 Zrotation Xrotation Yrotation
                JOINT rMid2
                {
                  OFFSET -3.10165 -0.590103 1.0647
                  CHANNELS 3 Zrotation Xrotation Yrotation
                  End Site
                  {
                    OFFSET -2.48547 -0.328903 0.83742
                  }
                }
              }
              JOINT rRing1
              {
                OFFSET -8.82822 0.546677 1.51678
                CHANNELS 3 Zrotation Xrotation Yrotation
                JOINT rRing2
                {
                  OFFSET -2.60934 -0.819778 -0.0198488
                  CHANNELS 3 Zrotation Xrotation Yrotation
                  End Site
                  {
                    OFFSET -2.33842 -0.294052 0.168128
                  }
                }
              }
              JOINT rPinky1
              {
                OFFSET -8.27202 -0.0477905 -0.4584
                CHANNELS 3 Zrotation Xrotation Yrotation
                JOINT rPinky2
                {
                  OFFSET -1.82734 -0.647385 -0.700984
                  CHANNELS 3 Zrotation Xrotation Yrotation
                  End Site
                  {
                    OFFSET -1.69225 -0.51767 -0.607171
                  }
                }
              }
            }
          }
        }
      }
      JOINT lCollar
      {
        OFFSET 2.68224 19.2634 -4.8768
        CHANNELS 3 Zrotation Xrotation Yrotation
        JOINT lShldr
        {
          OFFSET 8.77824 -1.95073 1.46304
          CHANNELS 3 Zrotation Xrotation Yrotation
          JOINT lForeArm
          {
            OFFSET 28.1742 -1.7115 0.48768
            CHANNELS 3 Zrotation Xrotation Yrotation
            JOINT lHand
            {
              OFFSET 22.5879 0.773209 7.07136
              CHANNELS 3 Zrotation Xrotation Yrotation
              JOINT lThumb1
              {
                OFFSET 1.2192 -0.487915 3.41376
                CHANNELS 3 Zrotation Xrotation Yrotation
                JOINT lThumb2
                {
                  OFFSET 3.37035 -0.52449 3.41376
                  CHANNELS 3 Zrotation Xrotation Yrotation
                  End Site
                  {
                    OFFSET 1.78271 -1.18214 1.43049
                  }
                }
              }
              JOINT lIndex1
              {
                OFFSET 7.75947 0.938293 5.60832
                CHANNELS 3 Zrotation Xrotation Yrotation
                JOINT lIndex2
                {
                  OFFSET 2.54057 -0.884171 1.56538
                  CHANNELS 3 Zrotation Xrotation Yrotation
                  End Site
                  {
                    OFFSET 1.62519 -0.234802 1.16502
                  }
                }
              }
              JOINT lMid1
              {
                OFFSET 8.24714 1.18213 3.41376
                CHANNELS 3 Zrotation Xrotation Yrotation
                JOINT lMid2
                {
                  OFFSET 3.10165 -0.590103 1.0647
                  CHANNELS 3 Zrotation Xrotation Yrotation
                  End Site
                  {
                    OFFSET 2.48547 -0.328903 0.83742
                  }
                }
              }
              JOINT lRing1
              {
                OFFSET 8.82822 0.546677 1.51678
                CHANNELS 3 Zrotation Xrotation Yrotation
                JOINT lRing2
                {
                  OFFSET 2.60934 -0.819778 -0.0198488
                  CHANNELS 3 Zrotation Xrotation Yrotation
                  End Site
                  {
                    OFFSET 2.33842 -0.294052 0.168128
                  }
                }
              }
              JOINT lPinky1
              {
                OFFSET 8.27202 -0.0477905 -0.4584
                CHANNELS 3 Zrotation Xrotation Yrotation
                JOINT lPinky2
                {
                  OFFSET 1.82734 -0.647385 -0.700984
                  CHANNELS 3 Zrotation Xrotation Yrotation
                  End Site
                  {
                    OFFSET 1.69225 -0.51767 -0.607171
                  }
                }
              }
            }
          }
        }
      }
    }
  }
  JOINT rButtock
  {
    OFFSET -8.77824 4.35084 1.2192
    CHANNELS 3 Zrotation Xrotation Yrotation
    JOINT rThigh
    {
      OFFSET 0 -1.70687 -2.19456
      CHANNELS 3 Zrotation Xrotation Yrotation
      JOINT rShin
      {
        OFFSET 0 -36.8199 0.73152
        CHANNELS 3 Zrotation Xrotation Yrotation
        JOINT rFoot
        {
          OFFSET 0.73152 -45.1104 -5.12064
          CHANNELS 3 Zrotation Xrotation Yrotation
          End Site
          {
            OFFSET -1.1221 -3.69964 12.103
          }
        }
      }
    }
  }
  JOINT lButtock
  {
    OFFSET 8.77824 4.35084 1.2192
    CHANNELS 3 Zrotation Xrotation Yrotation
    JOINT lThigh
    {
      OFFSET 0 -1.70687 -2.19456
      CHANNELS 3 Zrotation Xrotation Yrotation
      JOINT lShin
      {
        OFFSET 0 -36.8199 0.73152
        CHANNELS 3 Zrotation Xrotation Yrotation
        JOINT lFoot
        {
          OFFSET -0.73152 -45.1104 -5.12064
          CHANNELS 3 Zrotation Xrotation Yrotation
          End Site
          {
            OFFSET 1.1221 -3.69964 12.103
          }
        }
      }
    }
  }
}
MOTION
Frames:	4
Frame Time:	0.00833333
13.417 -14.2384 -25.8216 146.798 66.3677 176.538 -3.94996 53.8354 -2.50293 3.75541 -13.8491 -1.18735 1.38047 -3.40983 -2.78389 -9.01927 -42.5523 -8.37436 -0.0 0.0 0.0 -0.0 0.0 0.0 1.52467e-14 1.93842e-12 3.30535e-13 51.5301 4.01438 70.1042 -9.18996 -3.66302 16.2916 -0.186966 -12.2469 -1.74801 7.12802e-11 -1.98385e-10 -4.27808e-09 1.62995e-10 -3.41087e-10 -7.39641e-09 7.12842e-11 -1.98389e-10 -4.27809e-09 7.73091 5.47488 0.417314 7.12831e-11 -1.9839e-10 -4.27809e-09 2.90554 0.965183 0.102902 7.12825e-11 -1.98391e-10 -4.27809e-09 10.2786 0.731801 0.0259123 7.12703e-11 -1.98389e-10 -4.27808e-09 2.22167 -0.733487 -0.20892 1.51624e-14 1.93844e-12 3.30256e-13 7.50811 -9.56869 -63.6778 18.051 -10.7415 -34.1355 0.745737 -23.7473 3.54501 -2.55548e-09 -7.32701e-10 2.34378e-09 -4.45887e-09 -1.27232e-09 4.01293e-09 -2.55548e-09 -7.32706e-10 2.34379e-09 -7.73091 5.47488 -0.417314 -2.55548e-09 -7.32706e-10 2.34378e-09 -2.90554 0.965183 -0.102902 -2.55549e-09 -7.32708e-10 2.34378e-09 -10.2786 0.731801 -0.0259123 -2.55547e-09 -7.32706e-10 2.34378e-09 -2.22167 -0.733487 0.20892 -2.03217e-16 0.0 -3.88251e-19 -57.7788 9.12105 -39.5725 177.767 53.232 -150.692 19.9811 -54.7173 19.795 2.03217e-16 0.0 3.88251e-19 115.532 -67.6238 139.86 169.451 65.3575 -142.944 2.91889 -20.8898 -30.0107
13.7563 -14.6117 -25.8965 147.024 66.3909 176.695 -3.61472 54.0963 -2.93668 3.38799 -13.8641 -1.15696 1.35865 -3.49205 -2.86172 -9.28203 -42.4351 -8.62322 -0.0 0.0 0.0 -0.0 0.0 0.0 -5.95795e-14 1.19747e-12 3.5001e-13 52.1591 2.96236 70.1547 -9.07187 -3.59615 16.0722 -0.1657 -11.524 -1.64201 3.3079e-10 -1.56626e-10 -3.9757e-09 6.07253e-10 -2.68458e-10 -6.87157e-09 3.30794e-10 -1.5663e-10 -3.9757e-09 7.73091 5.47488 0.417314 3.30793e-10 -1.56631e-10 -3.9757e-09 2.90554 0.965183 0.102902 3.30791e-10 -1.56632e-10 -3.9757e-09 10.2786 0.731801 0.0259123 3.3078e-10 -1.56631e-10 -3.97569e-09 2.22167 -0.733487 -0.20892 -5.96953e-14 1.19749e-12 3.49712e-13 7.55615 -9.44854 -63.5361 18.209 -10.9132 -34.4909 0.757489 -23.9227 3.57446 -2.35313e-09 -4.94029e-10 2.01367e-09 -4.10259e-09 -8.58464e-10 3.44442e-09 -2.35313e-09 -4.94036e-10 2.01368e-09 -7.73091 5.47488 -0.417314 -2.35313e-09 -4.94036e-10 2.01367e-09 -2.90554 0.965183 -0.102902 -2.35313e-09 -4.94038e-10 2.01367e-09 -10.2786 0.731801 -0.0259123 -2.35312e-09 -4.94036e-10 2.01367e-09 -2.22167 -0.733487 0.20892 -2.03217e-16 0.0 -3.88251e-19 -58.2043 8.73268 -40.9323 177.921 53.1953 -151.719 20.5662 -54.3925 20.1263 2.03217e-16 0.0 3.88251e-19 114.578 -68.3995 139.199 169.615 65.257 -143.734 2.73368 -21.1969 -30.0048
14.2647 -15.6522 -26.007 147.203 66.41 176.816 -3.3004 54.3531 -2.9537 3.0455 -14.0041 -1.0967 1.17554 -3.55087 -2.97927 -9.22332 -42.3139 -8.77622 -0.0 0.0 0.0 -0.0 0.0 0.0 -1.18431e-13 5.19716e-13 3.27181e-13 52.6258 1.87768 70.2739 -8.91706 -3.50949 15.7848 -0.149749 -10.9315 -1.5556 4.29143e-10 -2.18533e-10 -3.45403e-09 7.71517e-10 -3.75772e-10 -5.96806e-09 4.29147e-10 -2.18536e-10 -3.45403e-09 7.73091 5.47488 0.417314 4.29146e-10 -2.18537e-10 -3.45403e-09 2.90554 0.965183 0.102902 4.29145e-10 -2.18537e-10 -3.45403e-09 10.2786 0.731801 0.0259123 4.29134e-10 -2.18536e-10 -3.45402e-09 2.22167 -0.733487 -0.20892 -1.18568e-13 5.19734e-13 3.26882e-13 7.6567 -9.32044 -63.4044 18.3716 -11.0921 -34.8588 0.77335 -24.1543 3.61354 -1.99775e-09 -2.28437e-10 1.49793e-09 -3.47655e-09 -3.98447e-10 2.55729e-09 -1.99776e-09 -2.28442e-10 1.49793e-09 -7.73091 5.47488 -0.417314 -1.99775e-09 -2.28442e-10 1.49793e-09 -2.90554 0.965183 -0.102902 -1.99776e-09 -2.28445e-10 1.49793e-09 -10.2786 0.731801 -0.0259123 -1.99775e-09 -2.28443e-10 1.49793e-09 -2.22167 -0.733487 0.20892 -2.03217e-16 0.0 -3.88251e-19 -58.6418 8.46818 -41.6488 177.967 53.2185 -152.061 20.8262 -54.2045 20.1038 2.03217e-16 0.0 3.88251e-19 116.339 -68.3572 140.354 169.705 65.3707 -144.468 2.57578 -20.8273 -29.3272
14.5799 -16.4835 -25.9442 147.589 66.5467 176.923 -3.00889 54.601 -2.70051 2.71359 -14.2143 -1.01948 0.892034 -3.60957 -3.12369 -8.9664 -42.1727 -8.87407 -0.0 0.0 0.0 -0.0 0.0 0.0 -1.80114e-13 -2.75332e-13 2.75941e-13 52.9877 0.770033 70.4604 -8.73683 -3.40942 15.4515 -0.136669 -10.4198 -1.4812 4.15998e-10 -3.39864e-10 -2.66122e-09 7.40644e-10 -5.86306e-10 -4.59619e-09 4.16003e-10 -3.39866e-10 -2.66123e-09 7.73091 5.47488 0.417314 4.16001e-10 -3.39867e-10 -2.66122e-09 2.90554 0.965183 0.102902 4.16003e-10 -3.39866e-10 -2.66122e-09 10.2786 0.731801 0.0259123 4.15992e-10 -3.39866e-10 -2.66121e-09 2.22167 -0.733487 -0.20892 -1.8027e-13 -2.75314e-13 2.75652e-13 7.77687 -9.19055 -63.2805 18.535 -11.2741 -35.2308 0.790907 -24.4068 3.65632 -1.4639e-09 1.03683e-10 7.51001e-10 -2.53658e-09 1.76684e-10 1.273e-09 -1.4639e-09 1.03681e-10 7.51004e-10 -7.73091 5.47488 -0.417314 -1.4639e-09 1.03681e-10 7.51e-10 -2.90554 0.965183 -0.102902 -1.46391e-09 1.0368e-10 7.50999e-10 -10.2786 0.731801 -0.0259123 -1.4639e-09 1.0368e-10 7.50996e-10 -2.22167 -0.733487 0.20892 -2.03217e-16 0.0 -3.88251e-19 -59.0876 8.26999 -41.9597 177.947 53.293 -151.968 20.8689 -54.104 19.8346 2.03217e-16 0.0 3.88251e-19 119.775 -67.7594 142.603 169.763 65.6221 -145.196 2.40176 -19.9986 -28.207
